<svg fill="currentColor" height="1em" stroke="currentColor" viewBox="0 0 140.599 140.599" width="1em" xmlns="http://www.w3.org/2000/svg" lined="false"><g fill="currentColor" stroke-width="0"></g><g fill="currentColor" stroke-linecap="round" stroke-linejoin="round"></g><g fill="currentColor"><g><path d="M132.861,56.559c-4.27,0-7.742,3.473-7.742,7.741c0,1.893,0.685,3.626,1.815,4.973l-15.464,15.463 c-2.754,2.754-4.557,1.857-4.027-2l0.062-0.445c0.528-3.857-1.39-4.876-4.286-2.273l-0.531,0.479 c-2.898,2.603-5.828,1.609-6.544-2.219l-5.604-29.964c-0.717-3.828-2.129-3.886-3.156-0.129l-7.023,25.689 c-1.025,3.757-2.295,3.677-2.834-0.181L71.93,33.674c3.488-0.751,6.111-3.856,6.111-7.566c0-4.268-3.473-7.741-7.741-7.741 c-4.269,0-7.742,3.473-7.742,7.741c0,3.709,2.625,6.815,6.112,7.566l-5.592,40.019c-0.539,3.857-1.809,3.938-2.835,0.181 l-7.023-25.69c-1.027-3.757-2.44-3.699-3.156,0.129l-5.605,29.964c-0.716,3.828-3.645,4.82-6.543,2.219l-0.533-0.479 c-2.897-2.604-4.816-1.586-4.287,2.272l0.061,0.445c0.529,3.858-1.274,4.753-4.028,2L13.667,69.273 c1.132-1.347,1.816-3.08,1.816-4.973c0-4.269-3.473-7.741-7.741-7.741C3.473,56.559,0,60.032,0,64.3 c0,4.269,3.473,7.742,7.742,7.742c0.478,0,0.942-0.05,1.396-0.132l10.037,33.949c1.104,3.734,3.534,9.637,7.161,11.055 c8.059,3.153,24.72,5.318,43.964,5.318c19.245,0,35.905-2.165,43.965-5.318c3.626-1.418,6.058-7.32,7.161-11.055l10.037-33.949 c0.453,0.083,0.918,0.132,1.396,0.132c4.268,0,7.739-3.473,7.739-7.742C140.6,60.032,137.127,56.559,132.861,56.559z M11.103,66.708c-0.685,0.954-1.761,1.605-2.994,1.714c-0.121,0.011-0.243,0.019-0.367,0.019c-2.284,0-4.142-1.857-4.142-4.142 c0-2.284,1.858-4.141,4.142-4.141c2.283,0,4.141,1.857,4.141,4.141C11.883,65.2,11.592,66.031,11.103,66.708z M66.159,26.109 c0-2.283,1.858-4.141,4.142-4.141c2.283,0,4.143,1.857,4.143,4.141c0,1.892-1.276,3.488-3.014,3.981 c-0.359,0.102-0.737,0.16-1.129,0.16s-0.769-0.058-1.128-0.16C67.436,29.596,66.159,28,66.159,26.109z M70.301,115.405 l-15.36-15.361l15.36-15.36l15.359,15.359L70.301,115.405z M132.861,68.442c-0.125,0-0.248-0.008-0.369-0.019 c-1.231-0.109-2.309-0.76-2.993-1.714c-0.488-0.68-0.779-1.51-0.779-2.409c0-2.284,1.856-4.141,4.142-4.141 c2.282,0,4.142,1.857,4.142,4.141C137.001,66.583,135.143,68.442,132.861,68.442z M60.036,100.046l10.27-10.27l10.269,10.27 l-10.269,10.27L60.036,100.046z" fill="white"></path></g></g></svg>