<svg width="800" height="800" viewBox="0 0 800 800" fill="none" xmlns="http://www.w3.org/2000/svg">
<g clip-path="url(#clip0_14_29)">
<path d="M400 400C275.977 400 100 591.797 100 712.891C100 767.383 141.797 800 212.109 800C288.477 800 338.867 760.742 400 760.742C461.719 760.742 512.305 800 587.891 800C658.203 800 700 767.383 700 712.891C700 591.797 524.023 400 400 400Z" fill="#FDFFFF"/>
<path d="M302.344 347.852C350.586 335.156 374.805 269.727 356.25 201.953C346.094 164.648 325 134.766 300 117.188V0L200 125C176.562 152.734 167.969 199.609 181.25 248.047C199.805 315.82 253.906 360.547 302.344 347.852ZM497.656 347.852C546.094 360.547 600.195 315.82 618.75 248.047C632.031 199.609 623.438 152.734 600 125L500 0V117.188C475 134.766 453.906 164.648 443.75 201.953C425.195 269.727 449.414 335.156 497.656 347.852ZM169.922 380.273C158.594 342.773 131.055 314.844 100 304.492V200L28.9062 297.461C10.1562 323.242 0 354.297 0 386.133C0 396.877 1.75781 408.203 5.07812 419.727C21.2891 473.828 71.4844 508.984 116.992 498.047C162.5 487.109 186.133 434.377 169.922 380.273ZM771.094 297.461L700 200V304.688C668.945 314.844 641.406 342.773 630.078 380.273C613.867 434.377 637.5 487.109 683.008 498.047C728.516 508.984 778.711 473.828 794.922 419.727C798.242 408.398 800 397.07 800 386.133C800 354.297 789.844 323.242 771.094 297.461Z" fill="#868A8C"/>
</g>
<defs>
<clipPath id="clip0_14_29">
<rect width="800" height="800" fill="white"/>
</clipPath>
</defs>
</svg>
