<svg height="1em" viewBox="0 0 296.6 330.5" width="1em" xmlns="http://www.w3.org/2000/svg" lined="false"><path d="M141.2,133.8c-.2,9.8-9,18-18.8,17.5-9.7-.4-17.5-8.9-17.1-18.6.4-9.7,8.7-17.5,18.4-17.2,9.7.3,17.7,8.7,17.5,18.3ZM123.3,48.8c0-9.8-8-17.5-17.9-17.6-9.9,0-17.9,7.7-18,17.5,0,9.9,8.1,18,18.2,17.9,9.8,0,17.8-8.1,17.7-17.9ZM70,171.4c-10.1-.2-18.4,7.7-18.5,17.6-.1,9.5,7.9,17.8,17.2,17.9,10.5.1,18.5-7.3,18.7-17.3.2-9.9-7.5-17.9-17.4-18.2ZM77.3,125.3c0-9.7-8-17.7-17.8-17.8-9.7,0-17.9,7.9-18,17.6-.2,9.7,8.4,18.2,18.2,18.1,9.7,0,17.7-8.2,17.7-18ZM166.3,228.4c-10,0-17.9,7.7-18,17.5-.1,10,7.6,17.9,17.5,17.9,10.3,0,18.5-7.9,18.4-17.7-.1-9.8-8.1-17.7-17.9-17.8ZM265.2,189.3c.1-9.6-8-17.8-17.7-17.9-10.2,0-18.2,7.8-18.1,17.9,0,9.9,7.9,17.6,17.8,17.7,9.8,0,17.9-7.9,18-17.7ZM258.3,122.7c0-9.8-7.9-17.9-17.6-18-9.8-.2-18.3,8.2-18.2,18,0,9.6,8.2,17.7,18,17.8,9.7,0,17.9-8.1,17.9-17.7Z" fill="currentColor" opacity="0.4"></path><path d="M296.5,148.2c1.8-68.1-42.7-127.4-107.9-143.6C156.1-3.5,124.3-1,94,13.1,53.4,31.8,27.4,63.5,14.7,106c-8.8-1.6-14.4,1.6-14.5,8.7-.3,19-.2,38,0,57,0,6.2,5.1,10,11.1,9.3,1.1-.1,2.2-.3,3.2-.4,17,54,52.7,88,107.3,102.7v13.6c-2.1,0-3.9,0-5.7,0-20.3,0-40.7.2-61,0-14.6-.2-19.5,2.8-18.8,18.9.5,10.7,4.2,14.8,14.9,14.8,63.5,0,127,0,190.5,0,15.9,0,18.4-2.5,18.4-18.6,0-11.1-3.9-14.9-15.1-14.9-21.7,0-43.3,0-65,0-1.8,0-3.5-.2-5.3-.3v-11.7c72.4-11.9,120-72.1,121.7-136.8ZM148.4,245.9c.1-9.9,8-17.5,18-17.5,9.8,0,17.8,7.9,17.9,17.8.1,9.8-8.1,17.8-18.4,17.7-9.9,0-17.6-8-17.5-17.9ZM247.2,207c-10,0-17.8-7.8-17.8-17.7,0-10.1,7.9-17.9,18.1-17.9,9.7,0,17.8,8.3,17.7,17.9-.1,9.8-8.2,17.7-18,17.7ZM240.7,104.7c9.8.2,17.6,8.3,17.6,18,0,9.7-8.2,17.8-17.9,17.7-9.7,0-17.9-8.1-18-17.8,0-9.9,8.4-18.2,18.2-18ZM141.2,133.8c-.2,9.8-9,18-18.8,17.5-9.7-.4-17.5-8.9-17.1-18.6.4-9.7,8.7-17.5,18.4-17.2,9.7.3,17.7,8.7,17.5,18.3ZM105.4,31.2c9.9,0,17.9,7.8,17.9,17.6,0,9.8-7.9,17.8-17.7,17.9-10.1,0-18.3-8-18.2-17.9,0-9.8,8-17.6,18-17.5ZM59.5,107.6c9.8,0,17.9,8.1,17.8,17.8,0,9.8-8.1,17.9-17.7,18-9.8,0-18.3-8.4-18.2-18.1.2-9.7,8.3-17.7,18-17.6ZM51.5,189c.1-9.9,8.4-17.8,18.5-17.6,9.8.2,17.5,8.3,17.4,18.2-.2,10-8.2,17.5-18.7,17.3-9.3-.1-17.3-8.4-17.2-17.9Z" fill="white"></path></svg>